@startuml
class UpdateProductCommand <<sealed>> <<record>> {
    + NewName : string <<get>> <<init>>
    + Calories : decimal <<get>> <<init>>
    + Proteins : decimal <<get>> <<init>>
    + Fats : decimal <<get>> <<init>>
    + Carbohydrates : decimal <<get>> <<init>>
}
class "IRequest`1"<T> {
}
"IRequest`1" "<Result>" <|-- UpdateProductCommand
UpdateProductCommand --> "UserId" Guid
UpdateProductCommand --> "UserRole" UserRole
UpdateProductCommand --> "ProductId" Guid
@enduml
